<?xml version="1.0" encoding="iso-8859-1"?>
<!-- Uploaded to: SVG Repo, www.svgrepo.com, Generator: SVG Repo Mixer Tools -->
<svg fill="#fff" height="800px" width="800px" version="1.1" id="Layer_1" xmlns="http://www.w3.org/2000/svg" xmlns:xlink="http://www.w3.org/1999/xlink"
	 viewBox="0 0 512 512" xml:space="preserve">
<g>
	<g>
		<path d="M175.059,86.807h-24.644c-0.821,2.323-0.862,5.49,0.088,8.234L258.31,406.35l17.511-28.556L175.059,86.807z"/>
	</g>
</g>
<g>
	<g>
		<path d="M279.369,237.201c-6.187-3.972-11.526-9.422-15.416-16.184l-43.784-75.687l71.573,206.652l17.511-28.498L279.369,237.201z
			"/>
	</g>
</g>
<g>
	<g>
		<path d="M329.255,238.242c-0.272,0.171-0.557,0.358-0.819,0.518c-0.457,0.344-0.944,0.648-1.464,0.908
			c-7.323,3.672-15.156,5.302-22.833,5.11l19.275,55.655l17.51-28.498L329.255,238.242z"/>
	</g>
</g>
<g>
	<g>
		<path d="M456.059,175.539c7.49-12.964,7.623-28.524,0.358-41.619c-7.096-12.788-20.01-20.717-34.544-21.21v0.001
			c-1.522-0.052-3.062-0.029-4.59,0.01c-41.942,1.078-80.223,27.131-97.527,66.373l-2.659,6.031
			c-1.492,3.385-4.781,5.627-8.478,5.78c-3.709,0.161-7.159-1.811-8.924-5.062L220.705,40.452
			c-3.182-4.711-8.446-7.512-14.146-7.512c-0.364,0-0.726-0.02-1.087-0.062l-89.366-10.328l13.261,44.508h62.636
			c3.463,0,6.664,2.097,8.398,5.095l80.361,139.04c7.329,12.738,23.329,17.685,36.744,11.437c0.05-0.031,0.101-0.03,0.151-0.06
			c5.35-3.188,9.831-6.912,12.615-10.515l30.977-40.271c12.262-15.861,30.738-24.943,50.706-24.943
			c5.785,0,11.132,3.137,13.953,8.181c2.829,5.061,2.699,11.278-0.343,16.226L266.163,430.674c-0.031,0.053-0.066,0.107-0.099,0.159
			c-6.611,10.309-18.261,15.677-30.394,14.02c-12.138-1.662-21.911-9.968-25.507-21.675L83.829,12.075
			c-1.391-4.53-4.477-8.183-8.689-10.289c-4.153-2.076-8.848-2.35-13.218-0.776c-0.21,0.076-0.423,0.145-0.639,0.206
			c-3.794,1.076-6.98,3.684-8.972,7.343c-2.2,4.04-2.685,9.326-1.329,13.753L191.73,481.795h-13.959
			c-8.838,0-16.003,6.264-16.003,15.102c0,8.838,7.164,15.102,16.003,15.102h219.238c8.838,0,16.003-6.264,16.003-15.102
			c0-8.838-7.164-15.102-16.003-15.102h-15.543v-22.687c0-5.469-4.431-9.841-9.9-9.841H314.6c-3.468,0-6.672-1.889-8.405-4.893
			c-1.732-3.004-1.73-6.723,0.006-9.725L456.059,175.539z"/>
	</g>
</g>
</svg>